<?xml version="1.0" encoding="UTF-8" standalone="no"?><!DOCTYPE svg PUBLIC "-//W3C//DTD SVG 1.1//EN" "http://www.w3.org/Graphics/SVG/1.1/DTD/svg11.dtd"><svg width="100%" height="100%" viewBox="0 0 407 67" version="1.1" xmlns="http://www.w3.org/2000/svg" xmlns:xlink="http://www.w3.org/1999/xlink" xml:space="preserve" style="fill-rule:evenodd;clip-rule:evenodd;stroke-linejoin:round;stroke-miterlimit:1.41421;"><path d="M406.922,0l-49.343,0l0,66c0,0 15.014,0 20.833,0c1.46,0 2.871,-0.533 3.967,-1.498c4.639,-4.088 17.501,-15.422 22.51,-19.836c1.292,-1.139 2.033,-2.779 2.033,-4.501c0,-9.42 0,-40.165 0,-40.165Z" style="fill:#f75c03;"/><rect x="337.693" y="0" width="7" height="66" style="fill:#f75c03;"/><g><path d="M363.078,13.662l0,-3.2l15.8,0l0,3.2c-0.72,2.373 -2.003,4.163 -3.85,5.37c-1.846,1.206 -4.53,1.983 -8.05,2.33l-0.6,-3.2c2.534,-0.267 4.494,-0.767 5.88,-1.5c1.387,-0.734 2.327,-1.734 2.82,-3l-12,0Zm1.7,-5.1l0,-3.2l12.6,0l0,3.2l-12.6,0Z" style="fill:#e5e0e0;fill-rule:nonzero;"/><path d="M385.578,9.062l0,-3.3l16.4,0l0,3.3c-0.733,1.44 -1.68,2.746 -2.84,3.92c-1.16,1.173 -2.606,2.28 -4.34,3.32c0.547,0.813 1.207,1.833 1.98,3.06l-3,1.9c-1.853,-2.92 -3.72,-5.554 -5.6,-7.9l2.9,-2.1c0.627,0.8 1.16,1.493 1.6,2.08c2.334,-1.48 3.954,-2.907 4.86,-4.28l-11.96,0Z" style="fill:#e5e0e0;fill-rule:nonzero;"/></g><g><path d="M362.778,32.262c2.667,-0.56 5.21,-1.464 7.63,-2.71c2.42,-1.247 4.544,-2.744 6.37,-4.49l2.6,2.6c-1.6,1.56 -3.466,2.96 -5.6,4.2l0,9.2l-3.9,0l0,-7.28c-2.066,0.853 -4.166,1.48 -6.3,1.88l-0.8,-3.4Z" style="fill:#e5e0e0;fill-rule:nonzero;"/><path d="M387.978,35.162l-2.5,-2.2c1.227,-1.347 2.167,-2.66 2.82,-3.94c0.654,-1.28 1.114,-2.7 1.38,-4.26l3.6,0.2c-0.053,0.6 -0.16,1.266 -0.32,2l7.92,0l0,3.2c-0.493,3.52 -1.726,6.123 -3.7,7.81c-1.973,1.686 -5.14,2.816 -9.5,3.39l-0.7,-3.3c3.334,-0.36 5.75,-1.137 7.25,-2.33c1.5,-1.194 2.43,-3.05 2.79,-5.57l-5.24,0c-0.866,1.653 -2.133,3.32 -3.8,5Z" style="fill:#e5e0e0;fill-rule:nonzero;"/></g><path d="M376.178,47.362l3.5,1c-0.906,3.986 -2.563,6.97 -4.97,8.95c-2.406,1.98 -5.85,3.163 -10.33,3.55l-0.5,-3.5c3.667,-0.374 6.41,-1.304 8.23,-2.79c1.82,-1.487 3.177,-3.89 4.07,-7.21Zm-5,1.5l-2,3c-1.866,-1.254 -3.8,-2.454 -5.8,-3.6l1.9,-3c1.987,1.093 3.954,2.293 5.9,3.6Z" style="fill:#e5e0e0;fill-rule:nonzero;"/><g><path d="M0,65.993l10.368,0l0,-24.96l0.096,0l13.968,24.96l7.968,0l13.968,-24.96l0.096,0l0,24.96l10.368,0l0,-34.752l-16.368,0l-12.048,22.368l-12.048,-22.368l-16.368,0l0,34.752Z" style="fill:#e5e0e0;fill-rule:nonzero;"/><path d="M56.184,65.993l11.904,0l3.12,-6.144l21.6,0l3.312,6.144l11.856,0l-19.104,-34.752l-13.872,0l-18.816,34.752Zm25.728,-26.688l6.912,13.056l-13.632,0l6.72,-13.056Z" style="fill:#e5e0e0;fill-rule:nonzero;"/><path d="M105.36,53.801c0,10.176 5.712,12.576 15.312,12.576l17.184,0c10.704,0 12.816,-4.608 12.816,-10.464l0,-3.264l-10.656,0c0,4.32 -1.44,4.8 -6.24,4.8l-11.376,0c-5.04,0 -6.096,-1.92 -6.096,-6.96l0,-3.744c0,-4.32 1.056,-6.96 6.672,-6.96l11.616,0c3.168,0 4.992,0.72 4.992,3.216l0,0.96l10.656,0c0.096,-9.84 -1.872,-13.104 -17.04,-13.104l-12.528,0c-9.6,0 -15.312,2.4 -15.312,12.576l0,10.368Z" style="fill:#e5e0e0;fill-rule:nonzero;"/><path d="M153.432,65.993l34.608,0l0,-8.928l-23.952,0l0,-25.824l-10.656,0l0,34.752Z" style="fill:#e5e0e0;fill-rule:nonzero;"/><path d="M189.264,65.993l38.64,0l0,-8.352l-27.984,0l0,-5.568l25.92,0l0,-7.2l-25.92,0l0,-5.568l27.36,0l0,-8.064l-38.016,0l0,34.752Z" style="fill:#e5e0e0;fill-rule:nonzero;"/><path d="M227.16,65.993l11.904,0l3.12,-6.144l21.6,0l3.312,6.144l11.856,0l-19.104,-34.752l-13.872,0l-18.816,34.752Zm25.728,-26.688l6.912,13.056l-13.632,0l6.72,-13.056Z" style="fill:#e5e0e0;fill-rule:nonzero;"/><path d="M278.304,65.993l10.656,0l0,-25.248l0.096,0l20.016,25.248l16.512,0l0,-34.752l-10.656,0l0,25.248l-0.096,0l-20.016,-25.248l-16.512,0l0,34.752Z" style="fill:#e5e0e0;fill-rule:nonzero;"/></g><g><path d="M0,11.976c0,4.056 1.824,5.592 6.816,5.592l3.48,0c4.824,0 7.44,-0.936 7.44,-5.712l0,-11.856l-5.328,0l0,11.424c0,1.608 -1.032,1.824 -2.784,1.824l-2.112,0c-1.656,0 -2.328,-0.528 -2.328,-1.824l0,-1.536l-5.184,0l0,2.088Z" style="fill:#f75c03;fill-rule:nonzero;"/><rect x="53.064" y="12.48" width="5.04" height="4.896" style="fill:#f75c03;fill-rule:nonzero;"/><path d="M93.624,17.376l16.08,0c5.328,0 7.2,-1.752 7.2,-6.048l0,-5.28c0,-4.296 -1.872,-6.048 -7.2,-6.048l-16.08,0l0,17.376Zm5.328,-13.056l9.456,0c2.28,0 3.168,0.648 3.168,3.12l0,2.352c0,2.472 -0.888,3.12 -3.168,3.12l-9.456,0l0,-8.592Z" style="fill:#e5e0e0;fill-rule:nonzero;"/><path d="M148.536,17.376l5.952,0l1.56,-3.072l10.8,0l1.656,3.072l5.928,0l-9.552,-17.376l-6.936,0l-9.408,17.376Zm12.864,-13.344l3.456,6.528l-6.816,0l3.36,-6.528Z" style="fill:#e5e0e0;fill-rule:nonzero;"/><path d="M214.104,17.376l6.576,0l9.336,-17.376l-5.832,0l-6.792,12.912l-6.792,-12.912l-5.832,0l9.336,17.376Z" style="fill:#e5e0e0;fill-rule:nonzero;"/><rect x="262.344" y="0" width="5.328" height="17.376" style="fill:#e5e0e0;fill-rule:nonzero;"/><path d="M301.872,17.376l16.08,0c5.328,0 7.2,-1.752 7.2,-6.048l0,-5.28c0,-4.296 -1.872,-6.048 -7.2,-6.048l-16.08,0l0,17.376Zm5.328,-13.056l9.456,0c2.28,0 3.168,0.648 3.168,3.12l0,2.352c0,2.472 -0.888,3.12 -3.168,3.12l-9.456,0l0,-8.592Z" style="fill:#e5e0e0;fill-rule:nonzero;"/></g></svg>